<svg width="20" height="20" viewBox="0 0 20 20" fill="none" xmlns="http://www.w3.org/2000/svg">
<path d="M18.9614 7.78168C18.8601 7.46107 18.5771 7.23423 18.2442 7.23423H12.4925L10.7154 1.48916C10.5899 1.19832 10.3161 1 9.99879 1C9.6815 1 9.40704 1.19832 9.28398 1.48409L9.28217 1.48916L7.50509 7.23423H1.75402C1.3378 7.23423 1 7.58906 1 8.02626C1 8.28858 1.12185 8.52175 1.30885 8.66559L1.31126 8.66685L5.96387 12.2171L4.1868 17.9628C4.16327 18.0363 4.15 18.1205 4.15 18.208C4.15 18.6452 4.4878 19 4.90402 19C5.07051 19 5.22433 18.9436 5.3492 18.8473L5.34678 18.8486L10 15.2971L14.6526 18.8486C14.7751 18.943 14.9289 18.9994 15.0954 18.9994C15.5122 18.9994 15.85 18.6445 15.85 18.2067C15.85 18.1193 15.8367 18.035 15.8114 17.9564L15.8132 17.9621L14.0355 12.2177L18.6893 8.66685C18.8788 8.52049 19 8.28795 19 8.02499C19 7.93819 18.9867 7.85391 18.962 7.77598L18.9638 7.78168H18.9614ZM12.7042 11.2742C12.5148 11.4206 12.3936 11.6538 12.3936 11.9167C12.3936 12.0035 12.4068 12.0878 12.4316 12.1664L12.4298 12.1607L13.6597 16.1341L10.441 13.6776C10.3185 13.5831 10.1647 13.5268 9.99819 13.5268C9.8317 13.5268 9.67788 13.5831 9.55302 13.6795L9.55543 13.6782L6.33666 16.1348L7.56602 12.1613C7.58954 12.0878 7.60342 12.0035 7.60342 11.9161C7.60342 11.6538 7.48157 11.4212 7.29457 11.2768L7.29216 11.2755L4.07399 8.81956H8.05221C8.38519 8.81956 8.6681 8.59272 8.76763 8.27844L8.76944 8.27274L9.99879 4.29865L11.2275 8.27274C11.3295 8.59272 11.6118 8.81956 11.9448 8.81956H15.9236L12.7042 11.2742Z" fill="white" stroke="white" stroke-width="0.1"/>
</svg>
