<svg width="24" height="25" viewBox="0 0 24 25" fill="none" xmlns="http://www.w3.org/2000/svg">
<path fill-rule="evenodd" clip-rule="evenodd" d="M12.0007 0.5C5.37378 0.5 0 5.87237 0 12.5007C0 17.413 2.95502 21.6353 7.18434 23.491C7.15047 22.6542 7.1787 21.6466 7.39178 20.735C7.62322 19.7612 8.93561 14.1969 8.93561 14.1969C8.93561 14.1969 8.55318 13.4307 8.55318 12.2975C8.55318 10.5194 9.58476 9.19148 10.8675 9.19148C11.9584 9.19148 12.4862 10.0114 12.4862 10.9936C12.4862 12.0901 11.7862 13.7313 11.4264 15.2511C11.1258 16.5254 12.0642 17.5626 13.3202 17.5626C15.5936 17.5626 17.1247 14.6429 17.1247 11.1827C17.1247 8.55363 15.3537 6.58502 12.1319 6.58502C8.4925 6.58502 6.22473 9.29873 6.22473 12.33C6.22473 13.3771 6.53237 14.1137 7.015 14.6838C7.23797 14.9477 7.2676 15.0521 7.18716 15.3541C7.13072 15.5729 6.99806 16.1063 6.94302 16.3165C6.86259 16.6199 6.61705 16.73 6.34328 16.6171C4.66538 15.9327 3.88499 14.0968 3.88499 12.0322C3.88499 8.62419 6.75957 4.53458 12.4608 4.53458C17.0429 4.53458 20.0586 7.85227 20.0586 11.4099C20.0586 16.1176 17.4422 19.6342 13.5826 19.6342C12.2886 19.6342 11.0693 18.9343 10.6516 18.1398C10.6516 18.1398 9.95449 20.9043 9.80772 21.4377C9.55371 22.3621 9.05556 23.2878 8.59975 24.0075C9.6793 24.3264 10.8195 24.5 12.0007 24.5C18.6276 24.5 24 19.1276 24 12.5007C24 5.87237 18.6276 0.5 12.0007 0.5Z" fill="#232529"/>
</svg>
