<svg width="30" height="25" viewBox="0 0 30 25" fill="none" xmlns="http://www.w3.org/2000/svg">
<path fill-rule="evenodd" clip-rule="evenodd" d="M9.43512 24.5C20.7558 24.5 26.9478 15.2652 26.9478 7.25784C26.9478 6.99496 26.9478 6.73406 26.9298 6.47413C28.1344 5.61756 29.1739 4.55404 30.0004 3.33713C28.8784 3.82744 27.6859 4.14899 26.4663 4.29076C27.7504 3.53314 28.7119 2.34289 29.1724 0.938419C27.9634 1.64434 26.6418 2.14255 25.2633 2.40987C22.9323 -0.0298632 19.0337 -0.148069 16.5542 2.14693C14.9567 3.62671 14.2772 5.83305 14.7737 7.93753C9.82513 7.69238 5.21407 5.39151 2.08803 1.6064C0.454506 4.37545 1.29002 7.91653 3.99455 9.69463C3.01504 9.66657 2.05653 9.40693 1.20002 8.9373V9.01421C1.20152 11.8985 3.26704 14.382 6.13808 14.9535C5.23207 15.1972 4.28105 15.2325 3.36004 15.0568C4.16555 17.526 6.47708 19.2173 9.10962 19.266C6.93009 20.9526 4.23755 21.8684 1.46552 21.8654C0.976513 21.864 0.487506 21.8359 0 21.7783C2.81554 23.5564 6.09008 24.5 9.43512 24.4956" fill="#232529"/>
</svg>
