<svg width="23" height="20" viewBox="0 0 23 20" fill="none" xmlns="http://www.w3.org/2000/svg">
<path d="M4.84973 3H22L19.6667 10H6.10616M20.8333 14H6.83333L4.5 1H1M8 18C8 18.5523 7.47766 19 6.83333 19C6.18901 19 5.66667 18.5523 5.66667 18C5.66667 17.4477 6.18901 17 6.83333 17C7.47766 17 8 17.4477 8 18ZM20.8333 18C20.8333 18.5523 20.311 19 19.6667 19C19.0223 19 18.5 18.5523 18.5 18C18.5 17.4477 19.0223 17 19.6667 17C20.311 17 20.8333 17.4477 20.8333 18Z" stroke="white" stroke-width="2" stroke-linecap="round" stroke-linejoin="round"/>
</svg>
