<svg width="24" height="25" viewBox="0 0 24 25" fill="none" xmlns="http://www.w3.org/2000/svg">
<path fill-rule="evenodd" clip-rule="evenodd" d="M12.8188 24.3977H1.32425C0.59247 24.3977 -0.000366211 23.8045 -0.000366211 23.073V1.72231C-0.000366211 0.990632 0.592563 0.397705 1.32425 0.397705H22.6751C23.4066 0.397705 23.9996 0.990632 23.9996 1.72231V23.073C23.9996 23.8046 23.4065 24.3977 22.6751 24.3977H16.5593V15.1036H19.6789L20.146 11.4815H16.5593V9.16903C16.5593 8.12035 16.8505 7.40571 18.3543 7.40571L20.2723 7.40487V4.16525C19.9406 4.12111 18.802 4.02249 17.4774 4.02249C14.7121 4.02249 12.8188 5.71047 12.8188 8.81031V11.4815H9.69119V15.1036H12.8188V24.3977Z" fill="white"/>
</svg>
