<svg width="24" height="25" viewBox="0 0 24 25" fill="none" xmlns="http://www.w3.org/2000/svg">
<path fill-rule="evenodd" clip-rule="evenodd" d="M12.8192 24.5H1.32462C0.592836 24.5 0 23.9068 0 23.1753V1.82461C0 1.09293 0.592929 0.5 1.32462 0.5H22.6755C23.407 0.5 24 1.09293 24 1.82461V23.1753C24 23.9069 23.4069 24.5 22.6755 24.5H16.5597V15.2059H19.6793L20.1464 11.5838H16.5597V9.27132C16.5597 8.22265 16.8509 7.508 18.3546 7.508L20.2727 7.50716V4.26755C19.9409 4.22341 18.8024 4.12479 17.4778 4.12479C14.7124 4.12479 12.8192 5.81276 12.8192 8.91261V11.5838H9.69156V15.2059H12.8192V24.5Z" fill="#232529"/>
</svg>
