<svg width="14" height="14" viewBox="0 0 14 14" fill="none" xmlns="http://www.w3.org/2000/svg">
<path d="M1 2.33333H5.5M5.5 2.33333C5.5 3.06971 6.17155 3.66667 7 3.66667C7.82845 3.66667 8.5 3.06971 8.5 2.33333M5.5 2.33333C5.5 1.59695 6.17155 1 7 1C7.82845 1 8.5 1.59695 8.5 2.33333M8.5 2.33333H13M1 7H10M10 7C10 7.7364 10.6716 8.33333 11.5 8.33333C12.3284 8.33333 13 7.7364 13 7C13 6.2636 12.3284 5.66667 11.5 5.66667C10.6716 5.66667 10 6.2636 10 7ZM4 11.6667H13M4 11.6667C4 10.9303 3.32843 10.3333 2.5 10.3333C1.67157 10.3333 1 10.9303 1 11.6667C1 12.4031 1.67157 13 2.5 13C3.32843 13 4 12.4031 4 11.6667Z" stroke="white" stroke-linecap="round"/>
</svg>
