<svg width="13" height="14" viewBox="0 0 13 14" fill="none" xmlns="http://www.w3.org/2000/svg">
<path d="M0.5 2.33333H5M5 2.33333C5 3.06971 5.67155 3.66667 6.5 3.66667C7.32845 3.66667 8 3.06971 8 2.33333M5 2.33333C5 1.59695 5.67155 1 6.5 1C7.32845 1 8 1.59695 8 2.33333M8 2.33333H12.5M0.5 7H9.5M9.5 7C9.5 7.7364 10.1716 8.33333 11 8.33333C11.8284 8.33333 12.5 7.7364 12.5 7C12.5 6.2636 11.8284 5.66667 11 5.66667C10.1716 5.66667 9.5 6.2636 9.5 7ZM3.5 11.6667H12.5M3.5 11.6667C3.5 10.9303 2.82843 10.3333 2 10.3333C1.17157 10.3333 0.5 10.9303 0.5 11.6667C0.5 12.4031 1.17157 13 2 13C2.82843 13 3.5 12.4031 3.5 11.6667Z" stroke="black" stroke-linecap="round"/>
</svg>
