<svg width="20" height="20" viewBox="0 0 20 20" fill="none" xmlns="http://www.w3.org/2000/svg">
<path d="M18.9775 7.83959C18.9151 7.64126 18.7397 7.49987 18.5325 7.49987H12.3542L10.4447 1.33907C10.3823 1.14073 10.2069 1 10.0003 1C9.9485 1 9.89857 1.00916 9.85175 1.02553L9.85487 1.02422C9.71381 1.07528 9.60582 1.19179 9.56275 1.33841L9.56213 1.34169L9.55463 1.33907L7.64521 7.49987H1.46752C1.20911 7.49987 1 7.71981 1 7.9908C1 8.15313 1.07553 8.29779 1.19163 8.38681L1.19288 8.38747L6.19083 12.1958L4.28141 18.3566C4.26705 18.4017 4.25831 18.4541 4.25831 18.5084C4.25831 18.7794 4.46804 18.9993 4.72646 18.9993C4.82946 18.9993 4.92496 18.9647 5.00236 18.9051L5.00111 18.9057L9.99969 15.0968L14.997 18.9057C15.0732 18.9647 15.1687 19 15.2723 19C15.5307 19 15.7404 18.7801 15.7404 18.5091C15.7404 18.4547 15.7317 18.4017 15.7161 18.3526L15.7173 18.3559L13.8079 12.1951L18.8077 8.38681C18.9251 8.29648 19 8.15313 19 7.9908C19 7.93647 18.9913 7.88411 18.9763 7.83501L18.9775 7.83828V7.83959ZM12.9827 11.6112C12.8654 11.7016 12.7899 11.8456 12.7899 12.0085C12.7899 12.0629 12.7986 12.1152 12.8142 12.1643L12.8129 12.1611L14.3822 17.2248L10.2743 14.094C10.2019 14.0416 10.1127 14.0102 10.0159 14.0102C10.0103 14.0102 10.0047 14.0102 9.99844 14.0102L9.99906 3.07826L11.5683 8.14266C11.6307 8.34099 11.8061 8.48238 12.0134 8.48238H17.0912L12.9827 11.6112Z" fill="black" stroke="black" stroke-width="0.1"/>
</svg>
