<svg width="24" height="25" viewBox="0 0 24 25" fill="none" xmlns="http://www.w3.org/2000/svg">
<path fill-rule="evenodd" clip-rule="evenodd" d="M12.0005 19.0453C15.6155 19.0453 18.546 16.1147 18.546 12.4998C18.546 8.88484 15.6155 5.95435 12.0005 5.95435C8.38558 5.95435 5.45508 8.88484 5.45508 12.4998C5.45508 16.1147 8.38558 19.0453 12.0005 19.0453ZM12.0005 16.8634C14.4105 16.8634 16.3642 14.9097 16.3642 12.4998C16.3642 10.0898 14.4105 8.13616 12.0005 8.13616C9.59056 8.13616 7.6369 10.0898 7.6369 12.4998C7.6369 14.9097 9.59056 16.8634 12.0005 16.8634Z" fill="#232529"/>
<path d="M18.546 4.86353C17.9435 4.86353 17.4551 5.35195 17.4551 5.95443C17.4551 6.55692 17.9435 7.04534 18.546 7.04534C19.1485 7.04534 19.6369 6.55692 19.6369 5.95443C19.6369 5.35195 19.1485 4.86353 18.546 4.86353Z" fill="#232529"/>
<path fill-rule="evenodd" clip-rule="evenodd" d="M0.713411 4.07388C0 5.47403 0 7.30694 0 10.9727V14.0273C0 17.6931 0 19.526 0.713411 20.9261C1.34095 22.1577 2.34227 23.1591 3.57388 23.7865C4.97403 24.5 6.80694 24.5 10.4727 24.5H13.5273C17.1931 24.5 19.026 24.5 20.4261 23.7865C21.6577 23.1591 22.6591 22.1577 23.2865 20.9261C24 19.526 24 17.6931 24 14.0273V10.9727C24 7.30694 24 5.47403 23.2865 4.07388C22.6591 2.84227 21.6577 1.84095 20.4261 1.21341C19.026 0.5 17.1931 0.5 13.5273 0.5H10.4727C6.80694 0.5 4.97403 0.5 3.57388 1.21341C2.34227 1.84095 1.34095 2.84227 0.713411 4.07388ZM13.5273 2.68182H10.4727C8.60383 2.68182 7.33336 2.68352 6.35136 2.76375C5.39481 2.8419 4.90564 2.98355 4.56441 3.15742C3.74333 3.57579 3.07579 4.24333 2.65742 5.06441C2.48355 5.40564 2.3419 5.89481 2.26375 6.85136C2.18352 7.83336 2.18182 9.10383 2.18182 10.9727V14.0273C2.18182 15.8962 2.18352 17.1666 2.26375 18.1486C2.3419 19.1052 2.48355 19.5944 2.65742 19.9356C3.07579 20.7567 3.74333 21.4242 4.56441 21.8425C4.90564 22.0164 5.39481 22.1581 6.35136 22.2363C7.33336 22.3164 8.60383 22.3182 10.4727 22.3182H13.5273C15.3962 22.3182 16.6666 22.3164 17.6486 22.2363C18.6052 22.1581 19.0944 22.0164 19.4356 21.8425C20.2567 21.4242 20.9242 20.7567 21.3425 19.9356C21.5164 19.5944 21.6581 19.1052 21.7363 18.1486C21.8164 17.1666 21.8182 15.8962 21.8182 14.0273V10.9727C21.8182 9.10383 21.8164 7.83336 21.7363 6.85136C21.6581 5.89481 21.5164 5.40564 21.3425 5.06441C20.9242 4.24333 20.2567 3.57579 19.4356 3.15742C19.0944 2.98355 18.6052 2.8419 17.6486 2.76375C16.6666 2.68352 15.3962 2.68182 13.5273 2.68182Z" fill="#232529"/>
</svg>
