<svg width="24" height="25" viewBox="0 0 24 25" fill="none" xmlns="http://www.w3.org/2000/svg">
<path fill-rule="evenodd" clip-rule="evenodd" d="M12 18.943C15.615 18.943 18.5455 16.0125 18.5455 12.3975C18.5455 8.78255 15.615 5.85205 12 5.85205C8.38509 5.85205 5.45459 8.78255 5.45459 12.3975C5.45459 16.0125 8.38509 18.943 12 18.943ZM12 16.7611C14.41 16.7611 16.3637 14.8074 16.3637 12.3975C16.3637 9.98753 14.41 8.03387 12 8.03387C9.59007 8.03387 7.63641 9.98753 7.63641 12.3975C7.63641 14.8074 9.59007 16.7611 12 16.7611Z" fill="white"/>
<path d="M18.5455 4.76123C17.943 4.76123 17.4546 5.24965 17.4546 5.85214C17.4546 6.45463 17.943 6.94305 18.5455 6.94305C19.148 6.94305 19.6364 6.45463 19.6364 5.85214C19.6364 5.24965 19.148 4.76123 18.5455 4.76123Z" fill="white"/>
<path fill-rule="evenodd" clip-rule="evenodd" d="M0.713411 3.97159C0 5.37174 0 7.20464 0 10.8704V13.925C0 17.5908 0 19.4237 0.713411 20.8238C1.34095 22.0554 2.34227 23.0568 3.57388 23.6843C4.97403 24.3977 6.80694 24.3977 10.4727 24.3977H13.5273C17.1931 24.3977 19.026 24.3977 20.4261 23.6843C21.6577 23.0568 22.6591 22.0554 23.2865 20.8238C24 19.4237 24 17.5908 24 13.925V10.8704C24 7.20464 24 5.37174 23.2865 3.97159C22.6591 2.73997 21.6577 1.73865 20.4261 1.11112C19.026 0.397705 17.1931 0.397705 13.5273 0.397705H10.4727C6.80694 0.397705 4.97403 0.397705 3.57388 1.11112C2.34227 1.73865 1.34095 2.73997 0.713411 3.97159ZM13.5273 2.57952H10.4727C8.60383 2.57952 7.33336 2.58123 6.35136 2.66145C5.39481 2.7396 4.90564 2.88126 4.56441 3.05513C3.74333 3.47349 3.07579 4.14104 2.65742 4.96211C2.48355 5.30335 2.3419 5.79251 2.26375 6.74907C2.18352 7.73107 2.18182 9.00153 2.18182 10.8704V13.925C2.18182 15.7939 2.18352 17.0643 2.26375 18.0463C2.3419 19.0029 2.48355 19.4921 2.65742 19.8333C3.07579 20.6544 3.74333 21.3219 4.56441 21.7402C4.90564 21.9141 5.39481 22.0559 6.35136 22.134C7.33336 22.2141 8.60383 22.2159 10.4727 22.2159H13.5273C15.3962 22.2159 16.6666 22.2141 17.6486 22.134C18.6052 22.0559 19.0944 21.9141 19.4356 21.7402C20.2567 21.3219 20.9242 20.6544 21.3425 19.8333C21.5164 19.4921 21.6581 19.0029 21.7363 18.0463C21.8164 17.0643 21.8182 15.7939 21.8182 13.925V10.8704C21.8182 9.00153 21.8164 7.73107 21.7363 6.74907C21.6581 5.79251 21.5164 5.30335 21.3425 4.96211C20.9242 4.14104 20.2567 3.47349 19.4356 3.05513C19.0944 2.88126 18.6052 2.7396 17.6486 2.66145C16.6666 2.58123 15.3962 2.57952 13.5273 2.57952Z" fill="white"/>
</svg>
