<svg width="90" height="39" viewBox="0 0 90 39" fill="none" xmlns="http://www.w3.org/2000/svg">
<rect width="90" height="39" rx="19.5" fill="#FA4862"/>
<path d="M14.2066 20.6777C14.3004 22.9043 14.3473 26.0332 14.3473 30.0645V30.9785H17.0895C17.6051 31.3301 17.8629 31.6875 17.8629 32.0508C17.8629 32.3203 17.775 32.5605 17.5992 32.7715C17.4234 32.9707 17.2066 33.0703 16.9488 33.0703C16.8316 33.0703 16.7086 33.0469 16.5797 33L16.4039 32.9473C16.2281 32.9941 15.9996 33.0176 15.7184 33.0176L15.1383 32.9824C14.9625 32.9707 14.7691 32.9648 14.5582 32.9648C14.3121 33.2578 13.9723 33.4043 13.5387 33.4043C13.2223 33.4043 12.941 33.2871 12.6949 33.0527C12.4488 32.8301 12.3258 32.5664 12.3258 32.2617C12.3258 32.0508 12.3668 31.7812 12.4488 31.4531C12.5191 31.1133 12.5543 30.8555 12.5543 30.6797C12.5543 28.0898 12.4371 23.9941 12.2027 18.3926C11.9566 12.9434 11.8336 8.85352 11.8336 6.12305C11.8336 5.91211 11.9156 5.73633 12.0797 5.5957C12.2555 5.45508 12.4664 5.38477 12.7125 5.38477C13.0055 5.38477 13.2574 5.49023 13.4684 5.70117C13.691 5.90039 13.8023 6.14062 13.8023 6.42188C13.8023 7.72266 13.8668 9.88477 13.9957 12.9082C14.1129 15.6504 14.1715 17.8066 14.1715 19.377L14.2066 19.8164C14.2184 19.9453 14.2242 20.0918 14.2242 20.2559C14.2242 20.3965 14.2184 20.4844 14.2066 20.5195V20.6777ZM36.8684 15.7734C37.009 16.7578 37.0793 17.8242 37.0793 18.9727V19.2363L37.1145 21.2754L37.1496 23.3145C37.1496 30.2168 35.55 33.668 32.3508 33.668C31.7063 33.668 31.1203 33.4746 30.593 33.0879C30.0656 32.7012 29.6438 32.1621 29.3273 31.4707C28.6477 30.0527 28.2082 28.459 28.009 26.6895C27.8098 25.0488 27.7102 23.4844 27.7102 21.9961C27.7102 21.7031 27.716 21.4629 27.7277 21.2754C27.7395 21.0879 27.7453 20.8711 27.7453 20.625C27.7453 20.5078 27.7277 20.4492 27.6926 20.4492V19.7988C27.6926 19.6113 27.7043 19.0957 27.7277 18.252C27.7277 17.877 27.7336 17.5547 27.7453 17.2852C27.757 16.6406 27.7805 16.0664 27.8156 15.5625C27.8625 15.0586 27.9328 14.4023 28.0266 13.5938C28.0969 12.9375 28.1965 12.3574 28.3254 11.8535C28.4543 11.3379 28.6242 10.8047 28.8352 10.2539C29.0109 9.77344 29.2336 9.41016 29.5031 9.16406C29.7727 8.90625 30.0715 8.77734 30.3996 8.77734C31.3605 8.77734 32.2277 8.95312 33.0012 9.30469C33.7746 9.65625 34.4191 10.1426 34.9348 10.7637C35.4152 11.3613 35.8195 12.0938 36.1477 12.9609C36.4875 13.8281 36.7277 14.7656 36.8684 15.7734ZM33.2648 11.168C32.8195 10.8516 32.3215 10.6934 31.7707 10.6934C30.9504 10.6934 30.4055 11.1562 30.1359 12.082C30.007 12.5156 29.9191 12.9551 29.8723 13.4004C29.8254 13.834 29.802 14.3496 29.802 14.9473C29.802 15.4043 29.8078 15.791 29.8195 16.1074C29.8313 16.4238 29.8371 16.7461 29.8371 17.0742C29.8371 17.3672 29.8078 17.9238 29.7492 18.7441C29.6906 19.5645 29.6613 20.1152 29.6613 20.3965C29.6613 21.2637 29.7082 22.5469 29.802 24.2461C29.8957 26.0508 30.1301 27.8027 30.5051 29.502C30.6809 30.334 30.9152 30.9902 31.2082 31.4707C31.5129 31.9395 31.8469 32.1738 32.2102 32.1738C32.632 32.1738 33.0188 32.0039 33.3703 31.6641C33.7336 31.3125 34.0207 30.832 34.2316 30.2227C34.6535 29.0156 34.9289 27.7031 35.0578 26.2852C35.1633 25.0195 35.216 23.9531 35.216 23.0859C35.216 22.0664 35.1398 20.6602 34.9875 18.8672C34.8234 16.9336 34.7414 15.5449 34.7414 14.7012V14.0684C34.718 13.4824 34.5773 12.9316 34.3195 12.416C34.0617 11.8887 33.7102 11.4727 33.2648 11.168ZM55.698 32.8418C55.077 33.1348 54.3914 33.2812 53.6414 33.2812C52.9734 33.2812 52.3582 33.1582 51.7957 32.9121C51.2332 32.6543 50.7645 32.3262 50.3895 31.9277C50.073 31.5879 49.7859 31.1074 49.5281 30.4863C49.282 29.8535 49.0828 29.2148 48.9305 28.5703C48.8133 28.0898 48.7195 27.4277 48.6492 26.584C48.5789 25.7285 48.5379 24.9902 48.5262 24.3691C48.5145 24.0293 48.5086 23.3262 48.5086 22.2598V20.8359C48.5086 19.4531 48.5379 18.3105 48.5965 17.4082C48.6316 16.7754 48.6844 16.2129 48.7547 15.7207C48.825 15.2168 48.9246 14.6426 49.0535 13.998C49.1707 13.4121 49.3172 12.9023 49.493 12.4688C49.6688 12.0352 49.8973 11.5957 50.1785 11.1504C50.448 10.7285 50.7527 10.3828 51.0926 10.1133C51.4324 9.83203 51.8367 9.60937 52.3055 9.44531C52.7742 9.28125 53.2781 9.19922 53.8172 9.19922C54.8367 9.19922 55.3465 9.50391 55.3465 10.1133C55.3465 10.3828 55.2293 10.6113 54.9949 10.7988C54.7723 10.9863 54.5086 11.0801 54.2039 11.0801C54.0984 11.0801 53.9695 11.0625 53.8172 11.0273L53.448 10.9922C53.0379 10.9922 52.6688 11.2148 52.3406 11.6602C52.0242 12.0938 51.7664 12.6914 51.5672 13.4531C51.1688 15 50.9109 16.623 50.7938 18.3223C50.7 19.7051 50.6531 20.9121 50.6531 21.9434C50.6531 23.0566 50.6883 24.1758 50.7586 25.3008C50.8055 26.0039 50.8699 26.6133 50.952 27.1289C51.0457 27.6328 51.1805 28.1719 51.3563 28.7461C51.5203 29.3203 51.7195 29.7891 51.9539 30.1523C52.1883 30.5039 52.4871 30.7969 52.8504 31.0312C53.2137 31.2773 53.6238 31.4004 54.0809 31.4004C55.241 31.4004 55.8211 29.4902 55.8211 25.6699V24.0176C55.6336 23.9238 55.3523 23.877 54.9773 23.877H54.6609C54.5555 23.8887 54.4266 23.8945 54.2742 23.8945C53.4422 23.8945 53.0262 23.6191 53.0262 23.0684C53.0262 22.7402 53.1375 22.4883 53.3602 22.3125C53.5945 22.125 53.8934 22.0312 54.2566 22.0312V22.0488H54.7488C56.9051 22.0488 57.9832 22.418 57.9832 23.1562C57.9832 23.4258 57.9188 23.8652 57.7898 24.4746C57.6609 25.084 57.5965 25.5176 57.5965 25.7754C57.5965 26.0801 57.6258 26.7129 57.6844 27.6738C57.743 28.6348 57.7723 29.2734 57.7723 29.5898C57.7723 30.3516 57.5848 31.0137 57.2098 31.5762C56.8348 32.127 56.3309 32.5488 55.698 32.8418ZM77.7973 15.7734C77.9379 16.7578 78.0082 17.8242 78.0082 18.9727V19.2363L78.0434 21.2754L78.0785 23.3145C78.0785 30.2168 76.4789 33.668 73.2797 33.668C72.6352 33.668 72.0492 33.4746 71.5219 33.0879C70.9945 32.7012 70.5727 32.1621 70.2563 31.4707C69.5766 30.0527 69.1371 28.459 68.9379 26.6895C68.7387 25.0488 68.6391 23.4844 68.6391 21.9961C68.6391 21.7031 68.6449 21.4629 68.6566 21.2754C68.6684 21.0879 68.6742 20.8711 68.6742 20.625C68.6742 20.5078 68.6566 20.4492 68.6215 20.4492V19.7988C68.6215 19.6113 68.6332 19.0957 68.6566 18.252C68.6566 17.877 68.6625 17.5547 68.6742 17.2852C68.6859 16.6406 68.7094 16.0664 68.7445 15.5625C68.7914 15.0586 68.8617 14.4023 68.9555 13.5938C69.0258 12.9375 69.1254 12.3574 69.2543 11.8535C69.3832 11.3379 69.5531 10.8047 69.7641 10.2539C69.9398 9.77344 70.1625 9.41016 70.432 9.16406C70.7016 8.90625 71.0004 8.77734 71.3285 8.77734C72.2895 8.77734 73.1566 8.95312 73.9301 9.30469C74.7035 9.65625 75.3481 10.1426 75.8637 10.7637C76.3441 11.3613 76.7484 12.0938 77.0766 12.9609C77.4164 13.8281 77.6566 14.7656 77.7973 15.7734ZM74.1938 11.168C73.7484 10.8516 73.2504 10.6934 72.6996 10.6934C71.8793 10.6934 71.3344 11.1562 71.0648 12.082C70.9359 12.5156 70.8481 12.9551 70.8012 13.4004C70.7543 13.834 70.7309 14.3496 70.7309 14.9473C70.7309 15.4043 70.7367 15.791 70.7484 16.1074C70.7602 16.4238 70.766 16.7461 70.766 17.0742C70.766 17.3672 70.7367 17.9238 70.6781 18.7441C70.6195 19.5645 70.5902 20.1152 70.5902 20.3965C70.5902 21.2637 70.6371 22.5469 70.7309 24.2461C70.8246 26.0508 71.059 27.8027 71.434 29.502C71.6098 30.334 71.8441 30.9902 72.1371 31.4707C72.4418 31.9395 72.7758 32.1738 73.1391 32.1738C73.5609 32.1738 73.9477 32.0039 74.2992 31.6641C74.6625 31.3125 74.9496 30.832 75.1606 30.2227C75.5824 29.0156 75.8578 27.7031 75.9867 26.2852C76.0922 25.0195 76.1449 23.9531 76.1449 23.0859C76.1449 22.0664 76.0688 20.6602 75.9164 18.8672C75.7523 16.9336 75.6703 15.5449 75.6703 14.7012V14.0684C75.6469 13.4824 75.5063 12.9316 75.2484 12.416C74.9906 11.8887 74.6391 11.4727 74.1938 11.168Z" fill="white"/>
</svg>
