<svg width="86" height="35" viewBox="0 0 86 35" fill="none" xmlns="http://www.w3.org/2000/svg">
<path d="M0.876421 27V0.818181H4.8267V23.5994H16.6903V27H0.876421ZM30.2412 27.3963C28.4003 27.3963 26.7938 26.9744 25.4216 26.1307C24.0495 25.2869 22.9841 24.1065 22.2256 22.5895C21.4671 21.0724 21.0878 19.2997 21.0878 17.2713C21.0878 15.2344 21.4671 13.4531 22.2256 11.9276C22.9841 10.402 24.0495 9.21733 25.4216 8.37358C26.7938 7.52983 28.4003 7.10795 30.2412 7.10795C32.0821 7.10795 33.6887 7.52983 35.0608 8.37358C36.433 9.21733 37.4983 10.402 38.2568 11.9276C39.0154 13.4531 39.3946 15.2344 39.3946 17.2713C39.3946 19.2997 39.0154 21.0724 38.2568 22.5895C37.4983 24.1065 36.433 25.2869 35.0608 26.1307C33.6887 26.9744 32.0821 27.3963 30.2412 27.3963ZM30.254 24.1875C31.4472 24.1875 32.4358 23.8722 33.2199 23.2415C34.004 22.6108 34.5836 21.7713 34.9586 20.723C35.3421 19.6747 35.5338 18.5199 35.5338 17.2585C35.5338 16.0057 35.3421 14.8551 34.9586 13.8068C34.5836 12.75 34.004 11.902 33.2199 11.2628C32.4358 10.6236 31.4472 10.304 30.254 10.304C29.0523 10.304 28.0551 10.6236 27.2625 11.2628C26.4784 11.902 25.8946 12.75 25.5111 13.8068C25.1361 14.8551 24.9486 16.0057 24.9486 17.2585C24.9486 18.5199 25.1361 19.6747 25.5111 20.723C25.8946 21.7713 26.4784 22.6108 27.2625 23.2415C28.0551 23.8722 29.0523 24.1875 30.254 24.1875ZM52.9743 34.7727C51.4146 34.7727 50.0723 34.5682 48.9473 34.1591C47.8308 33.75 46.9189 33.2088 46.2115 32.5355C45.5041 31.8622 44.9757 31.125 44.6263 30.3239L47.9118 28.9688C48.1419 29.3438 48.4487 29.7401 48.8322 30.1577C49.2243 30.5838 49.7527 30.946 50.4175 31.2443C51.0908 31.5426 51.9558 31.6918 53.0126 31.6918C54.4615 31.6918 55.6589 31.3381 56.605 30.6307C57.551 29.9318 58.024 28.8153 58.024 27.2812V23.4205H57.7811C57.551 23.8381 57.2186 24.3026 56.7839 24.8139C56.3578 25.3253 55.7697 25.7685 55.0197 26.1435C54.2697 26.5185 53.2939 26.706 52.0922 26.706C50.541 26.706 49.1433 26.3437 47.899 25.6193C46.6632 24.8864 45.6831 23.8082 44.9587 22.3849C44.2427 20.9531 43.8848 19.1932 43.8848 17.1051C43.8848 15.017 44.2385 13.2273 44.9459 11.7358C45.6618 10.2443 46.6419 9.10227 47.8862 8.30966C49.1305 7.50852 50.541 7.10795 52.1177 7.10795C53.3365 7.10795 54.3209 7.3125 55.0709 7.72159C55.8209 8.12216 56.4047 8.59091 56.8223 9.12784C57.2484 9.66477 57.5765 10.1378 57.8067 10.5469H58.0879V7.36364H61.8337V27.4347C61.8337 29.1222 61.4416 30.5071 60.6575 31.5895C59.8734 32.6719 58.8123 33.473 57.4743 33.9929C56.1447 34.5128 54.6447 34.7727 52.9743 34.7727ZM52.9359 23.5355C54.0354 23.5355 54.9643 23.2798 55.7229 22.7685C56.4899 22.2486 57.0694 21.5071 57.4615 20.544C57.8621 19.5724 58.0623 18.4091 58.0623 17.054C58.0623 15.733 57.8663 14.5696 57.4743 13.5639C57.0822 12.5582 56.5069 11.7741 55.7484 11.2116C54.9899 10.6406 54.0524 10.3551 52.9359 10.3551C51.7854 10.3551 50.8265 10.6534 50.0595 11.25C49.2925 11.8381 48.7129 12.6392 48.3209 13.6534C47.9373 14.6676 47.7456 15.8011 47.7456 17.054C47.7456 18.3409 47.9416 19.4702 48.3337 20.4418C48.7257 21.4134 49.3052 22.1719 50.0723 22.7173C50.8479 23.2628 51.8024 23.5355 52.9359 23.5355ZM76.3114 27.3963C74.4705 27.3963 72.8639 26.9744 71.4918 26.1307C70.1196 25.2869 69.0543 24.1065 68.2958 22.5895C67.5372 21.0724 67.158 19.2997 67.158 17.2713C67.158 15.2344 67.5372 13.4531 68.2958 11.9276C69.0543 10.402 70.1196 9.21733 71.4918 8.37358C72.8639 7.52983 74.4705 7.10795 76.3114 7.10795C78.1523 7.10795 79.7588 7.52983 81.131 8.37358C82.5031 9.21733 83.5685 10.402 84.327 11.9276C85.0855 13.4531 85.4648 15.2344 85.4648 17.2713C85.4648 19.2997 85.0855 21.0724 84.327 22.5895C83.5685 24.1065 82.5031 25.2869 81.131 26.1307C79.7588 26.9744 78.1523 27.3963 76.3114 27.3963ZM76.3242 24.1875C77.5173 24.1875 78.506 23.8722 79.2901 23.2415C80.0742 22.6108 80.6537 21.7713 81.0287 20.723C81.4122 19.6747 81.604 18.5199 81.604 17.2585C81.604 16.0057 81.4122 14.8551 81.0287 13.8068C80.6537 12.75 80.0742 11.902 79.2901 11.2628C78.506 10.6236 77.5173 10.304 76.3242 10.304C75.1225 10.304 74.1253 10.6236 73.3327 11.2628C72.5486 11.902 71.9648 12.75 71.5813 13.8068C71.2063 14.8551 71.0188 16.0057 71.0188 17.2585C71.0188 18.5199 71.2063 19.6747 71.5813 20.723C71.9648 21.7713 72.5486 22.6108 73.3327 23.2415C74.1253 23.8722 75.1225 24.1875 76.3242 24.1875Z" fill="#FA4862"/>
</svg>
