<svg width="24" height="25" viewBox="0 0 24 25" fill="none" xmlns="http://www.w3.org/2000/svg">
<path fill-rule="evenodd" clip-rule="evenodd" d="M12.0007 0.397705C5.37378 0.397705 0 5.77008 0 12.3984C0 17.3107 2.95502 21.533 7.18434 23.3887C7.15047 22.5519 7.1787 21.5443 7.39178 20.6327C7.62322 19.6589 8.93561 14.0947 8.93561 14.0947C8.93561 14.0947 8.55318 13.3284 8.55318 12.1952C8.55318 10.4171 9.58476 9.08919 10.8675 9.08919C11.9584 9.08919 12.4862 9.90908 12.4862 10.8913C12.4862 11.9878 11.7862 13.629 11.4264 15.1488C11.1258 16.4231 12.0642 17.4603 13.3202 17.4603C15.5936 17.4603 17.1247 14.5406 17.1247 11.0804C17.1247 8.45133 15.3537 6.48273 12.1319 6.48273C8.4925 6.48273 6.22473 9.19644 6.22473 12.2277C6.22473 13.2748 6.53237 14.0114 7.015 14.5815C7.23797 14.8454 7.2676 14.9498 7.18716 15.2518C7.13072 15.4706 6.99806 16.004 6.94302 16.2142C6.86259 16.5177 6.61705 16.6277 6.34328 16.5148C4.66538 15.8304 3.88499 13.9945 3.88499 11.9299C3.88499 8.52189 6.75957 4.43228 12.4608 4.43228C17.0429 4.43228 20.0586 7.74998 20.0586 11.3076C20.0586 16.0153 17.4422 19.5319 13.5826 19.5319C12.2886 19.5319 11.0693 18.832 10.6516 18.0375C10.6516 18.0375 9.95449 20.802 9.80772 21.3354C9.55371 22.2598 9.05556 23.1855 8.59975 23.9052C9.6793 24.2241 10.8195 24.3977 12.0007 24.3977C18.6276 24.3977 24 19.0253 24 12.3984C24 5.77008 18.6276 0.397705 12.0007 0.397705Z" fill="white"/>
</svg>
