<svg width="30" height="25" viewBox="0 0 30 25" fill="none" xmlns="http://www.w3.org/2000/svg">
<path fill-rule="evenodd" clip-rule="evenodd" d="M9.43475 24.3977C20.7554 24.3977 26.9475 15.1629 26.9475 7.15554C26.9475 6.89266 26.9475 6.63176 26.9295 6.37184C28.134 5.51527 29.1735 4.45174 30 3.23484C28.878 3.72515 27.6855 4.04669 26.466 4.18846C27.75 3.43085 28.7115 2.24059 29.172 0.836124C27.963 1.54205 26.6415 2.04026 25.263 2.30758C22.9319 -0.132158 19.0334 -0.250364 16.5538 2.04464C14.9563 3.52442 14.2768 5.73075 14.7733 7.83524C9.82476 7.59009 5.2137 5.28922 2.08766 1.5041C0.45414 4.27315 1.28965 7.81423 3.99418 9.59234C3.01467 9.56427 2.05616 9.30463 1.19965 8.83501V8.91191C1.20115 11.7962 3.26668 14.2797 6.13771 14.8512C5.2317 15.0949 4.28069 15.1302 3.35968 14.9545C4.16519 17.4237 6.47672 19.115 9.10925 19.1638C6.92972 20.8503 4.23719 21.7661 1.46515 21.7631C0.976147 21.7617 0.48714 21.7336 -0.000366211 21.676C2.81517 23.4541 6.08971 24.3977 9.43475 24.3933" fill="white"/>
</svg>
